Coordinates
version=1
nRows=16
nColumns=40
inDegrees=yes

Units are S.I. units (second, meters, Newtons, ...)
Angles are in degrees.

endheader
time	pelvis_tilt	pelvis_list	pelvis_rotation	pelvis_tx	pelvis_ty	pelvis_tz	hip_flexion_r	hip_adduction_r	hip_rotation_r	knee_angle_r	knee_angle_r_beta	ankle_angle_r	subtalar_angle_r	mtp_angle_r	hip_flexion_l	hip_adduction_l	hip_rotation_l	knee_angle_l	knee_angle_l_beta	ankle_angle_l	subtalar_angle_l	mtp_angle_l	lumbar_extension	lumbar_bending	lumbar_rotation	arm_flex_r	arm_add_r	arm_rot_r	elbow_flex_r	pro_sup_r	wrist_flex_r	wrist_dev_r	arm_flex_l	arm_add_l	arm_rot_l	elbow_flex_l	pro_sup_l	wrist_flex_l	wrist_dev_l
     35.86900000	     -5.76919776	     -5.74827978	     -4.13019177	      1.03893899	      0.93406018	      0.42840773	     37.52490142	     -3.14102424	     -7.72098269	     57.51375542	     57.51375542	      2.63091252	    -18.10110254	      9.57223169	      9.77495334	     -6.12895773	    -10.12231601	     18.17287889	     18.17287889	     15.27569132	    -14.33646537	      3.50985997	    -10.71356172	      8.10172280	      2.87637168	      3.71320355	    -12.61525217	    -12.89649221	     27.96235333	     47.10199877	      0.00000000	      0.00000000	     18.02300515	    -16.48525315	     -0.67554822	     61.27361557	     46.57241382	      0.00000000	      0.00000000
     35.88050000	     -5.78333613	     -5.87267187	     -4.45371049	      1.03767636	      0.93426830	      0.42903396	     37.95297266	     -2.46562452	     -7.72293120	     54.18083236	     54.18083236	      2.44750681	    -17.17916981	      8.62451056	      8.67417822	     -6.21141388	    -10.55747973	     17.26989276	     17.26989276	     15.43453089	    -13.94052941	      3.29110789	    -10.96389943	      8.29890435	      3.17944375	      1.99720106	    -12.67584097	    -13.10717356	     26.14624642	     47.17244231	      0.00000000	      0.00000000	     19.37268204	    -16.75848246	     -1.62343795	     63.61185418	     46.69927532	      0.00000000	      0.00000000
     35.89200000	     -5.87163379	     -5.95183537	     -4.69244595	      1.03654489	      0.93408662	      0.42959028	     38.11175952	     -1.96122435	     -7.93656501	     50.25291692	     50.25291692	      1.11043416	    -16.20565550	      3.96514358	      7.69285543	     -6.25071080	    -10.99886981	     16.39971442	     16.39971442	     15.27378484	    -13.60908264	      2.15701369	    -11.09205446	      8.42156641	      2.20532130	      1.68989806	    -12.39376422	    -14.37124872	     22.91412977	     47.39355743	      0.00000000	      0.00000000	     19.17875016	    -17.59900428	     -4.14574897	     67.89424751	     46.99252536	      0.00000000	      0.00000000
     35.90350000	     -5.91494698	     -5.96225693	     -4.91907133	      1.03555123	      0.93379372	      0.43018463	     38.19595348	     -1.51205346	     -8.04782711	     46.38000998	     46.38000998	      1.18786509	    -14.27193215	      3.43325165	      6.64186170	     -6.18576741	    -11.38755383	     15.52034898	     15.52034898	     15.48960737	    -13.15969573	      2.02664510	    -11.23374767	      8.48434754	      2.52724878	     -0.27502171	    -12.46015513	    -14.69887272	     21.78105502	     47.45228637	      0.00000000	      0.00000000	     20.71992482	    -17.77178142	     -4.82679987	     69.68921443	     47.08998838	      0.00000000	      0.00000000
     35.91500000	     -6.07817708	     -6.05985698	     -5.05630812	      1.03463539	      0.93311410	      0.43079170	     38.15071171	     -1.00759124	     -8.28959359	     42.19531735	     42.19531735	      1.36494049	    -12.12686442	      3.35875390	      5.83756108	     -6.24087344	    -11.63595051	     14.85603154	     14.85603154	     15.75316701	    -12.77352574	      1.85317005	    -11.16238240	      8.70455366	      2.41609960	     -2.07460373	    -12.47657386	    -14.89436114	     21.04003837	     47.48535391	      0.00000000	      0.00000000	     22.00522357	    -18.26132758	     -5.36466116	     71.12612116	     47.16215475	      0.00000000	      0.00000000
     35.92650000	     -5.98117389	     -5.94349066	     -5.15973385	      1.03416326	      0.93239339	      0.43127858	     37.56138641	     -0.81749137	     -8.65741162	     37.67299266	     37.67299266	      0.66602289	     -9.79836925	      0.43863109	      4.64169729	     -6.04609249	    -12.23348335	     13.99187278	     13.99187278	     15.70510811	    -12.05705751	      0.61254120	    -11.50770291	      8.57045241	      2.08794644	     -3.72970771	    -12.35036593	    -16.88097561	     20.62182450	     47.67899411	      0.00000000	      0.00000000	     22.27686104	    -18.60096817	     -7.15010037	     75.25777931	     47.39720253	      0.00000000	      0.00000000
     35.93800000	     -6.00233233	     -5.92115997	     -5.18788800	      1.03379009	      0.93132024	      0.43184196	     36.96665321	     -0.49070178	     -9.04857228	     33.20172839	     33.20172839	      0.88173279	     -7.31842083	      0.75680551	      3.68672842	     -5.95146241	    -12.47506963	     13.35791130	     13.35791130	     16.02309217	    -11.59519038	      0.37117196	    -11.54644346	      8.62231350	      2.10178518	     -5.58436373	    -12.38165269	    -17.15174935	     19.95764371	     47.71592961	      0.00000000	      0.00000000	     23.58876074	    -18.85199990	     -7.53856584	     76.69719758	     47.46072320	      0.00000000	      0.00000000
     35.94950000	     -5.96587488	     -5.81286542	     -5.16662363	      1.03373302	      0.93000578	      0.43240416	     36.15971453	     -0.28466839	     -9.57329730	     28.77174581	     28.77174581	      1.09594088	     -4.74527274	      1.30233819	      2.66382671	     -5.76779696	    -12.77969337	     12.73124646	     12.73124646	     16.34848275	    -10.98668807	     -0.01282925	    -11.60607523	      8.55431678	      2.10601893	     -7.48458415	    -12.34775949	    -17.49253069	     19.55784039	     47.74696564	      0.00000000	      0.00000000	     24.77569973	    -19.05714367	     -7.93414124	     78.43971484	     47.52980941	      0.00000000	      0.00000000
     35.96100000	     -5.84798245	     -5.65071108	     -5.11448048	      1.03404614	      0.92843813	      0.43304476	     35.19440163	     -0.14086912	    -10.22441223	     24.60912071	     24.60912071	      1.37091177	     -2.27467389	      2.18074491	      1.55274945	     -5.53345436	    -13.11965868	     12.14127817	     12.14127817	     16.71330003	    -10.27817893	     -0.53892851	    -11.70655355	      8.40543949	      2.08522060	     -9.41127022	    -12.27502825	    -17.92856175	     19.44314688	     47.77308087	      0.00000000	      0.00000000	     25.81648871	    -19.22675112	     -8.30993140	     80.36222336	     47.60175215	      0.00000000	      0.00000000
     35.97250000	     -5.74077377	     -5.41410356	     -5.04526760	      1.03459642	      0.92645983	      0.43378747	     34.39212611	     -0.13875376	    -11.10535219	     21.22521650	     21.22521650	      2.44609395	      0.35532215	      5.29491130	      0.51219717	     -5.29130205	    -13.77537041	     11.68028933	     11.68028933	     16.91132027	     -9.19177035	     -1.97459867	    -11.81938084	      8.16086656	      1.89667572	    -11.77887490	    -11.94771151	    -19.89124910	     21.41888042	     47.82405148	      0.00000000	      0.00000000	     26.37502538	    -19.57280208	     -8.92449240	     83.25170819	     47.73798110	      0.00000000	      0.00000000
     35.98400000	     -5.61984719	     -5.17776414	     -4.92184342	      1.03546451	      0.92439468	      0.43463711	     33.42286203	     -0.02835896	    -11.82055115	     17.98733598	     17.98733598	      2.67205078	      1.85811321	      6.44329173	     -0.54819027	     -4.98833854	    -13.88929277	     11.23332734	     11.23332734	     17.32672971	     -8.74126895	     -2.28202687	    -11.75490023	      7.93399794	      1.89758662	    -13.41390574	    -11.82289073	    -20.16794529	     21.04782397	     47.84301943	      0.00000000	      0.00000000	     27.43251340	    -19.68628257	     -9.06290243	     84.40239477	     47.78168363	      0.00000000	      0.00000000
     35.99550000	     -5.48147332	     -4.95758600	     -4.81824777	      1.03654786	      0.92218552	      0.43569062	     32.50398872	      0.08419956	    -12.66070485	     15.38490863	     15.38490863	      2.84765704	      3.23161878	      7.65741293	     -1.62688679	     -4.73540190	    -14.07487239	     10.83956011	     10.83956011	     17.81805159	     -8.15089867	     -2.66602246	    -11.71843019	      7.70415131	      1.88019757	    -14.99674124	    -11.65102901	    -20.44029248	     20.91075224	     47.85096277	      0.00000000	      0.00000000	     28.32393241	    -19.71635328	     -9.09391188	     85.67890834	     47.81994867	      0.00000000	      0.00000000
     36.00700000	     -5.40207847	     -4.77550028	     -4.72142844	      1.03779777	      0.91976396	      0.43697459	     31.90491822	      0.13208634	    -13.77605377	     13.88541870	     13.88541870	      3.86528182	      4.65604169	     10.77409355	     -2.52776873	     -4.64982513	    -14.73782774	     10.73315833	     10.73315833	     18.45949251	     -6.86698265	     -3.29426757	    -11.63629466	      7.51857359	      2.03473840	    -17.07597092	    -11.28528664	    -21.50729463	     22.47794198	     47.81113061	      0.00000000	      0.00000000	     29.02096328	    -19.86885303	     -8.78586414	     87.28465506	     47.87632146	      0.00000000	      0.00000000
     36.01850000	     -5.32768063	     -4.59900230	     -4.62739881	      1.03923382	      0.91738475	      0.43847713	     31.20669878	      0.29850818	    -14.41386534	     12.57995718	     12.57995718	      3.76045223	      5.04141432	     11.13670400	     -3.45708133	     -4.50028379	    -14.76342659	     10.55705462	     10.55705462	     18.97681856	     -6.55628260	     -3.42657010	    -11.45149900	      7.32236144	      2.07954768	    -18.21647164	    -11.10156188	    -21.59797620	     22.15171402	     47.81329103	      0.00000000	      0.00000000	     29.72825755	    -19.79493339	     -8.81070835	     88.10401815	     47.90517116	      0.00000000	      0.00000000
     36.03000000	     -5.26675362	     -4.49342785	     -4.54146721	      1.04085287	      0.91503373	      0.44023467	     30.60579335	      0.48442751	    -15.08235043	     11.90535858	     11.90535858	      3.49197741	      5.33639668	     11.03712972	     -4.32696668	     -4.49381032	    -14.93558172	     10.52607272	     10.52607272	     19.57336002	     -6.01728170	     -3.53325657	    -11.24696590	      7.18795089	      2.21869091	    -19.29149235	    -10.90345552	    -21.67629208	     21.95425220	     47.80714668	      0.00000000	      0.00000000	     30.22482504	    -19.68586294	     -8.69121423	     89.04328496	     47.92792610	      0.00000000	      0.00000000
     36.04150000	     -5.23562329	     -4.43012090	     -4.46179048	      1.04264921	      0.91261420	      0.44232395	     30.05629609	      0.72517239	    -15.46408593	     11.57734306	     11.57734306	      2.17838229	      5.11757203	      7.86371606	     -4.94548629	     -4.70684787	    -15.64593795	     11.05490225	     11.05490225	     20.82778933	     -4.57618481	     -2.79206768	    -10.98922508	      7.09506543	      2.28875869	    -20.32884271	    -10.66405469	    -21.75186841	     22.33645368	     47.72407881	      0.00000000	      0.00000000	     30.49847386	    -19.77183672	     -8.34226497	     89.88866402	     47.98284055	      0.00000000	      0.00000000
